<svg width="1200" height="630" xmlns="http://www.w3.org/2000/svg" viewBox="0 0 1200 630">
  <defs>
    <radialGradient id="bg" cx="60%" cy="30%" r="80%">
      <stop offset="0%" stop-color="#10102a" />
      <stop offset="100%" stop-color="#04050f" />
    </radialGradient>
    <linearGradient id="spark" x1="0%" y1="0%" x2="100%" y2="100%">
      <stop offset="0%" stop-color="#ffc85c" />
      <stop offset="100%" stop-color="#84e0ff" />
    </linearGradient>
  </defs>
  <rect width="1200" height="630" fill="url(#bg)" />
  <g fill="#ffffff20" opacity="0.4">
    <circle cx="950" cy="200" r="180" />
    <circle cx="320" cy="330" r="120" />
  </g>
  <g fill="none" stroke="url(#spark)" stroke-width="2" opacity="0.6">
    <path d="M120 450 Q360 320 480 470" />
    <path d="M810 430 Q920 300 1080 380" />
    <path d="M250 180 Q420 70 560 200" />
  </g>
  <g fill="#ffffff" opacity="0.8">
    <circle cx="300" cy="250" r="3" />
    <circle cx="340" cy="200" r="3" />
    <circle cx="360" cy="280" r="3" />
    <circle cx="950" cy="360" r="4" />
    <circle cx="970" cy="290" r="3" />
    <circle cx="660" cy="150" r="3" />
    <circle cx="720" cy="220" r="2.5" />
    <circle cx="580" cy="430" r="3" />
    <circle cx="800" cy="190" r="3" />
  </g>
  <text x="50%" y="510" fill="#fdf8ff" font-family="'Playfair Display', serif" font-size="58" font-weight="700" text-anchor="middle">
    Your sky. Your story.
  </text>
  <text x="50%" y="570" fill="#bfc4ff" font-family="'Montserrat', sans-serif" font-size="24" text-anchor="middle">
    Design a custom star map with perfect accuracy + artful style.
  </text>
</svg>
